#!OML:ASF F:\VICON\USERDATA\INSTALL\rory3\rory3.ASF
:FULLY-SPECIFIED
:DEGREES
190
root 0.350636 18.1751 10.7452 -1.92597 -0.333456 -5.99184
lowerback 9.64256 0.49155 6.28084
upperback -0.85577 1.54476 2.43456
thorax -6.23235 0.588561 -1.20149
lowerneck -16.3581 -2.72569 -1.53521
upperneck 22.4194 -3.04882 -1.39886
head 9.81962 -1.70647 -0.632963
rclavicle -4.11236e-015 3.12092e-014
rhumerus -26.2871 -14.8948 -80.7396
rradius 24.8095
rwrist 2.20469
rhand -17.3365 22.7858
rfingers 7.12502
rthumb 8.91059 -7.00601
lclavicle -4.11236e-015 3.12092e-014
lhumerus -33.7699 5.18175 81.8024
lradius 20.9802
lwrist 3.28213
lhand -25.8715 19.7383
lfingers 7.12502
lthumb 0.66984 49.717
rfemur -7.20674 2.40036 32.8442
rtibia 28.3393
rfoot -15.5741 -5.12966
rtoes 6.09733
lfemur -22.1871 2.32748 -13.8125
ltibia 62.1162
lfoot -8.61438 -0.823106
ltoes -13.3755
191
root 0.35761 18.1599 10.905 -1.86506 -0.647088 -6.03474
lowerback 9.64607 0.592071 6.34429
upperback -0.733307 1.67707 2.40997
thorax -6.09299 0.656748 -1.2815
lowerneck -16.7225 -2.76966 -1.51285
upperneck 22.5984 -3.13055 -1.30981
head 9.95296 -1.73194 -0.625038
rclavicle -1.05201e-014 -4.59193e-014
rhumerus -25.4773 -14.1771 -81.1567
rradius 25.3131
rwrist 1.71724
rhand -17.4286 23.1076
rfingers 7.12502
rthumb 8.82174 -6.68801
lclavicle -1.05201e-014 -4.59193e-014
lhumerus -33.9204 5.60431 81.5851
lradius 20.9526
lwrist 3.07308
lhand -25.8979 21.053
lfingers 7.12502
lthumb 0.644352 51.0318
rfemur -6.71581 2.354 32.9426
rtibia 28.3987
rfoot -15.8501 -5.06894
rtoes 5.22722
lfemur -22.9901 2.46426 -13.8283
ltibia 61.0125
lfoot -8.91429 -0.113467
ltoes -11.9763
192
root 0.364608 18.1489 11.0702 -1.78472 -0.731337 -5.98547
lowerback 9.64141 0.68992 6.39767
upperback -0.65433 1.80367 2.33724
thorax -5.99388 0.720048 -1.40526
lowerneck -16.6549 -2.8842 -1.63297
upperneck 22.2955 -3.31992 -1.06893
head 9.83919 -1.80091 -0.541069
rclavicle 1.4474e-015 -6.16232e-015
rhumerus -24.9546 -13.3249 -81.4876
rradius 26.1227
rwrist 0.835883
rhand -17.6634 22.6431
rfingers 7.12502
rthumb 8.59514 -7.16199
lclavicle 1.4474e-015 -6.16232e-015
lhumerus -33.9627 5.71339 81.5322
lradius 20.7292
lwrist 3.0551
lhand -25.9442 21.7314
lfingers 7.12502
lthumb 0.599671 51.7103
rfemur -6.18695 2.39877 32.9291
rtibia 28.4553
rfoot -16.2236 -5.19495
rtoes 5.94826
lfemur -23.7797 2.34912 -13.9568
ltibia 59.6995
lfoot -9.06601 0.651743
ltoes -9.57238
193
root 0.370808 18.1347 11.2318 -1.57306 -0.784124 -6.00759
lowerback 9.58086 0.754749 6.50103
upperback -0.698501 1.8962 2.28975
thorax -5.99537 0.760513 -1.52483
lowerneck -16.41 -2.89295 -1.54302
upperneck 21.9173 -3.3622 -1.06736
head 9.65745 -1.81266 -0.551737
rclavicle -2.65253e-015 9.54166e-015
rhumerus -24.5881 -12.6717 -81.7035
rradius 26.7333
rwrist 0.593081
rhand -18.2198 22.6571
rfingers 7.12502
rthumb 8.05822 -7.16927
lclavicle -2.65253e-015 9.54166e-015
lhumerus -34.1123 6.02381 81.2969
lradius 20.5518
lwrist 1.60761
lhand -24.5825 24.3098
lfingers 7.12502
lthumb 1.9148 54.281
rfemur -5.83768 2.51401 32.9948
rtibia 28.5069
rfoot -16.5891 -5.19862
rtoes 7.51256
lfemur -24.7301 2.3622 -13.9961
ltibia 58.257
lfoot -9.0476 1.52293
ltoes -7.29142
194
root 0.37917 18.1109 11.3844 -1.47719 -0.990495 -6.02008
lowerback 9.65119 0.859641 6.55829
upperback -0.681332 2.04567 2.26091
thorax -6.00329 0.831473 -1.60957
lowerneck -16.4178 -2.94154 -1.48189
upperneck 21.8429 -3.43956 -1.09487
head 9.63082 -1.84648 -0.580597
rclavicle 5.28022e-016 7.7526e-015
rhumerus -24.2694 -11.7418 -81.9093
rradius 27.5808
rwrist 0.0487791
rhand -18.2727 22.8182
rfingers 7.12502
rthumb 8.00718 -7.01009
lclavicle 5.28022e-016 7.7526e-015
lhumerus -34.2228 6.32204 81.0154
lradius 21.0277
lwrist -1.24173
lhand -20.5383 32.05
lfingers 7.12502
lthumb 5.82008 61.95
rfemur -5.40207 2.6996 33.0617
rtibia 28.4913
rfoot -16.871 -5.15733
rtoes 9.28869
lfemur -25.484 2.45046 -14.0244
ltibia 56.7265
lfoot -9.31112 2.43117
ltoes -7.00374
